<svg width="15" height="18" viewBox="0 0 15 18" fill="none" xmlns="http://www.w3.org/2000/svg">
<path d="M14.2175 6.13956C14.1374 6.1897 12.2309 7.24779 12.2309 9.59384C12.3208 12.2694 14.6368 13.2076 14.6766 13.2076C14.6368 13.2578 14.3269 14.4858 13.4088 15.7731C12.6802 16.882 11.8715 18 10.6434 18C9.47529 18 9.05596 17.261 7.70811 17.261C6.26063 17.261 5.85107 18 4.74284 18C3.51479 18 2.64618 16.8221 1.87784 15.7236C0.879647 14.2859 0.0312169 12.0297 0.00126464 9.86341C-0.0189206 8.71545 0.201163 7.58704 0.759838 6.62856C1.54836 5.29048 2.95612 4.38214 4.49345 4.35219C5.67136 4.31247 6.71969 5.1609 7.43854 5.1609C8.12744 5.1609 9.41539 4.35219 10.8726 4.35219C11.5016 4.35284 13.179 4.54232 14.2175 6.13956ZM7.33892 4.12299C7.12925 3.07466 7.70811 2.02633 8.24725 1.35762C8.93615 0.548908 10.0242 0 10.9625 0C11.0224 1.04833 10.6428 2.07647 9.9643 2.82528C9.35548 3.63399 8.30715 4.2428 7.33892 4.12299Z" fill="white"/>
</svg>
