<svg width="18" height="18" viewBox="0 0 18 18" fill="none" xmlns="http://www.w3.org/2000/svg">
<path d="M9 10.35C7.98 10.35 7.05375 10.6388 6.22125 11.2163C5.38875 11.7937 4.785 12.555 4.41 13.5H13.59C13.215 12.555 12.6112 11.7937 11.7788 11.2163C10.9462 10.6388 10.02 10.35 9 10.35ZM5.22 9L6.21 8.055L7.155 9L8.1 8.055L7.155 7.11L8.1 6.12L7.155 5.175L6.21 6.12L5.22 5.175L4.275 6.12L5.22 7.11L4.275 8.055L5.22 9ZM10.845 9L11.79 8.055L12.78 9L13.725 8.055L12.78 7.11L13.725 6.12L12.78 5.175L11.79 6.12L10.845 5.175L9.9 6.12L10.845 7.11L9.9 8.055L10.845 9ZM9 18C7.755 18 6.585 17.7638 5.49 17.2912C4.395 16.8187 3.4425 16.1775 2.6325 15.3675C1.8225 14.5575 1.18125 13.605 0.70875 12.51C0.23625 11.415 0 10.245 0 9C0 7.755 0.23625 6.585 0.70875 5.49C1.18125 4.395 1.8225 3.4425 2.6325 2.6325C3.4425 1.8225 4.395 1.18125 5.49 0.70875C6.585 0.23625 7.755 0 9 0C10.245 0 11.415 0.23625 12.51 0.70875C13.605 1.18125 14.5575 1.8225 15.3675 2.6325C16.1775 3.4425 16.8187 4.395 17.2912 5.49C17.7638 6.585 18 7.755 18 9C18 10.245 17.7638 11.415 17.2912 12.51C16.8187 13.605 16.1775 14.5575 15.3675 15.3675C14.5575 16.1775 13.605 16.8187 12.51 17.2912C11.415 17.7638 10.245 18 9 18ZM9 16.2C11.01 16.2 12.7125 15.5025 14.1075 14.1075C15.5025 12.7125 16.2 11.01 16.2 9C16.2 6.99 15.5025 5.2875 14.1075 3.8925C12.7125 2.4975 11.01 1.8 9 1.8C6.99 1.8 5.2875 2.4975 3.8925 3.8925C2.4975 5.2875 1.8 6.99 1.8 9C1.8 11.01 2.4975 12.7125 3.8925 14.1075C5.2875 15.5025 6.99 16.2 9 16.2Z" fill="white"/>
</svg>
