<svg width="27" height="27" viewBox="0 0 27 27" fill="none" xmlns="http://www.w3.org/2000/svg">
<path d="M25.0815 14C25.0815 15.3547 23.9209 16.7278 21.704 17.7919C19.5232 18.8387 16.4753 19.5 13.0815 19.5C9.6878 19.5 6.63989 18.8387 4.45907 17.7919C2.24223 16.7278 1.08154 15.3547 1.08154 14C1.08154 12.6453 2.24223 11.2722 4.45907 10.2081C6.63989 9.16133 9.6878 8.5 13.0815 8.5C16.4753 8.5 19.5232 9.16133 21.704 10.2081C23.9209 11.2722 25.0815 12.6453 25.0815 14Z" stroke="black"/>
<path d="M25.0815 13.5815C25.0815 14.9362 23.9209 16.3093 21.704 17.3734C19.5232 18.4202 16.4753 19.0815 13.0815 19.0815C9.6878 19.0815 6.63989 18.4202 4.45907 17.3734C2.24223 16.3093 1.08154 14.9362 1.08154 13.5815C1.08154 12.2269 2.24223 10.8537 4.45907 9.78966C6.63989 8.74287 9.6878 8.08154 13.0815 8.08154C16.4753 8.08154 19.5232 8.74287 21.704 9.78966C23.9209 10.8537 25.0815 12.2269 25.0815 13.5815Z" stroke="black"/>
<path d="M21.5668 21.9852C20.6089 22.9431 18.8173 23.0933 16.4973 22.2782C14.215 21.4763 11.5922 19.7888 9.19246 17.389C6.79272 14.9893 5.10515 12.3665 4.30328 10.0842C3.48815 7.76423 3.63837 5.97255 4.59626 5.01465C5.55416 4.05676 7.34584 3.90654 9.6658 4.72166C11.9481 5.52354 14.5709 7.21111 16.9706 9.61085C19.3704 12.0106 21.0579 14.6334 21.8598 16.9157C22.6749 19.2356 22.5247 21.0273 21.5668 21.9852Z" stroke="black"/>
<path d="M21.5668 21.5668C20.6089 22.5247 18.8173 22.6749 16.4973 21.8597C14.215 21.0579 11.5922 19.3703 9.19246 16.9706C6.79272 14.5708 5.10515 11.948 4.30328 9.66573C3.48815 7.34577 3.63837 5.55409 4.59626 4.59619C5.55416 3.6383 7.34584 3.48808 9.6658 4.30321C11.9481 5.10508 14.5709 6.79265 16.9706 9.19239C19.3704 11.5921 21.0579 14.215 21.8598 16.4972C22.6749 18.8172 22.5247 20.6089 21.5668 21.5668Z" stroke="black"/>
<path d="M13.0815 26C11.7269 26 10.3537 24.8393 9.28966 22.6225C8.24287 20.4416 7.58154 17.3937 7.58154 14C7.58154 10.6063 8.24287 7.55835 9.28966 5.37753C10.3537 3.16069 11.7269 2 13.0815 2C14.4362 2 15.8093 3.16069 16.8734 5.37753C17.9202 7.55835 18.5815 10.6063 18.5815 14C18.5815 17.3937 17.9202 20.4417 16.8734 22.6225C15.8093 24.8393 14.4362 26 13.0815 26Z" stroke="black"/>
<path d="M13.0815 25.5815C11.7269 25.5815 10.3537 24.4209 9.28966 22.204C8.24287 20.0232 7.58154 16.9753 7.58154 13.5815C7.58154 10.1878 8.24287 7.13989 9.28966 4.95907C10.3537 2.74223 11.7269 1.58154 13.0815 1.58154C14.4362 1.58154 15.8093 2.74223 16.8734 4.95907C17.9202 7.13989 18.5815 10.1878 18.5815 13.5815C18.5815 16.9753 17.9202 20.0232 16.8734 22.204C15.8093 24.4209 14.4362 25.5815 13.0815 25.5815Z" stroke="black"/>
<path d="M4.59633 21.9852C3.63843 21.0273 3.48822 19.2356 4.30334 16.9156C5.10522 14.6334 6.79278 12.0105 9.19252 9.61079C11.5923 7.21105 14.2151 5.52349 16.4974 4.72161C18.8173 3.90649 20.609 4.0567 21.5669 5.0146C22.5248 5.97249 22.675 7.76417 21.8599 10.0841C21.058 12.3664 19.3704 14.9892 16.9707 17.389C14.571 19.7887 11.9481 21.4763 9.66587 22.2781C7.3459 23.0933 5.55422 22.9431 4.59633 21.9852Z" stroke="black"/>
<path d="M4.59633 21.5667C3.63843 20.6088 3.48822 18.8171 4.30334 16.4972C5.10522 14.2149 6.79278 11.5921 9.19252 9.19234C11.5923 6.7926 14.2151 5.10503 16.4974 4.30315C18.8173 3.48803 20.609 3.63825 21.5669 4.59614C22.5248 5.55404 22.675 7.34572 21.8599 9.66568C21.058 11.9479 19.3704 14.5708 16.9707 16.9705C14.571 19.3703 11.9481 21.0578 9.66587 21.8597C7.3459 22.6748 5.55422 22.5246 4.59633 21.5667Z" stroke="black"/>
</svg>
