<svg width="16" height="22" viewBox="0 0 16 22" fill="none" xmlns="http://www.w3.org/2000/svg">
<path d="M3 15C3 14.45 3.19583 13.9792 3.5875 13.5875C3.97917 13.1958 4.45 13 5 13C5.55 13 6.02083 13.1958 6.4125 13.5875C6.80417 13.9792 7 14.45 7 15C7 15.55 6.80417 16.0208 6.4125 16.4125C6.02083 16.8042 5.55 17 5 17C4.45 17 3.97917 16.8042 3.5875 16.4125C3.19583 16.0208 3 15.55 3 15ZM8 13H14C14.55 13 15.0208 13.1958 15.4125 13.5875C15.8042 13.9792 16 14.45 16 15V22H14V20H2V22H0V12H2V18H8V13ZM11.75 12L8.8 6.65L6.15 9.3L6.4 11L5.65 11.75L4.475 9.55L2.275 8.35L3.025 7.6L4.725 7.825L7.375 5.175L2 2.25L2.95 1.3L9.55 3L12.25 0.3C12.45 0.1 12.6917 0 12.975 0C13.2583 0 13.5 0.1 13.7 0.3C13.9 0.5 14 0.741667 14 1.025C14 1.30833 13.9 1.55 13.7 1.75L11 4.45L12.7 11.05L11.75 12ZM14 18V15H10V18H14Z" fill="white"/>
</svg>
