<svg width="32" height="22" viewBox="0 0 32 22" fill="none" xmlns="http://www.w3.org/2000/svg">
<path d="M3.11667 22L7.33333 14.6667C5.31667 14.6667 3.59028 13.9486 2.15417 12.5125C0.718055 11.0764 0 9.35 0 7.33333C0 5.31667 0.718055 3.59028 2.15417 2.15417C3.59028 0.718056 5.31667 0 7.33333 0C9.35 0 11.0764 0.718056 12.5125 2.15417C13.9486 3.59028 14.6667 5.31667 14.6667 7.33333C14.6667 8.03611 14.5826 8.68542 14.4146 9.28125C14.2465 9.87708 13.9944 10.45 13.6583 11L7.33333 22H3.11667ZM19.6167 22L23.8333 14.6667C21.8167 14.6667 20.0903 13.9486 18.6542 12.5125C17.2181 11.0764 16.5 9.35 16.5 7.33333C16.5 5.31667 17.2181 3.59028 18.6542 2.15417C20.0903 0.718056 21.8167 0 23.8333 0C25.85 0 27.5764 0.718056 29.0125 2.15417C30.4486 3.59028 31.1667 5.31667 31.1667 7.33333C31.1667 8.03611 31.0826 8.68542 30.9146 9.28125C30.7465 9.87708 30.4944 10.45 30.1583 11L23.8333 22H19.6167ZM7.33333 10.0833C8.09722 10.0833 8.74653 9.81597 9.28125 9.28125C9.81597 8.74653 10.0833 8.09722 10.0833 7.33333C10.0833 6.56944 9.81597 5.92014 9.28125 5.38542C8.74653 4.85069 8.09722 4.58333 7.33333 4.58333C6.56944 4.58333 5.92014 4.85069 5.38542 5.38542C4.85069 5.92014 4.58333 6.56944 4.58333 7.33333C4.58333 8.09722 4.85069 8.74653 5.38542 9.28125C5.92014 9.81597 6.56944 10.0833 7.33333 10.0833ZM23.8333 10.0833C24.5972 10.0833 25.2465 9.81597 25.7812 9.28125C26.316 8.74653 26.5833 8.09722 26.5833 7.33333C26.5833 6.56944 26.316 5.92014 25.7812 5.38542C25.2465 4.85069 24.5972 4.58333 23.8333 4.58333C23.0694 4.58333 22.4201 4.85069 21.8854 5.38542C21.3507 5.92014 21.0833 6.56944 21.0833 7.33333C21.0833 8.09722 21.3507 8.74653 21.8854 9.28125C22.4201 9.81597 23.0694 10.0833 23.8333 10.0833Z" fill="#020210"/>
</svg>
