<svg width="15" height="18" viewBox="0 0 15 18" fill="none" xmlns="http://www.w3.org/2000/svg">
<path d="M4.5 9.9H6.3V7.425H8.1V9.9H9.9V5.625L7.2 3.825L4.5 5.625V9.9ZM7.2 15.615C9.03 13.935 10.3875 12.4088 11.2725 11.0363C12.1575 9.66375 12.6 8.445 12.6 7.38C12.6 5.745 12.0787 4.40625 11.0362 3.36375C9.99375 2.32125 8.715 1.8 7.2 1.8C5.685 1.8 4.40625 2.32125 3.36375 3.36375C2.32125 4.40625 1.8 5.745 1.8 7.38C1.8 8.445 2.2425 9.66375 3.1275 11.0363C4.0125 12.4088 5.37 13.935 7.2 15.615ZM7.2 18C4.785 15.945 2.98125 14.0363 1.78875 12.2738C0.59625 10.5113 0 8.88 0 7.38C0 5.13 0.72375 3.3375 2.17125 2.0025C3.61875 0.6675 5.295 0 7.2 0C9.105 0 10.7812 0.6675 12.2287 2.0025C13.6762 3.3375 14.4 5.13 14.4 7.38C14.4 8.88 13.8037 10.5113 12.6112 12.2738C11.4187 14.0363 9.615 15.945 7.2 18Z" fill="white"/>
</svg>
